# xmcd
#
# Track frame offsets:
#	150
#	17352
#	29150
#	42907
#	57210
#	69832
#	84475
#	96665
#	107102
#	117892
#	129362
#	141942
#
# Disc length: 2038
#
# Revision: 3
# Processed by: cddbd v1.5.1PL0 Copyright (c) Steve Scherf et al.
# Submitted via: ExactAudioCopy v0.95a5
# Normalized: r2:TDELIM( - )
#
DISCID=a107f40c
DTITLE=Various Artist - Wrinkles-ClassicAndRareChessInstrumentals;ChessMCA9293
DYEAR=1989
DGENRE=Blues
TTITLE0=Jody Williams - Lucky Lou
TTITLE1=The Big Three Trio - Wrinkles
TTITLE2=Little Walter - Blue Midnight (Alternative Take)
TTITLE3=Chuck Berry - How High the Moon
TTITLE4=Paul Gayten - Driving Home, Part 2
TTITLE5=Earl Brown - Soft, Sweet and Mellow Blues, Take 2
TTITLE6=Otis Spann - Five Spot
TTITLE7=Lloyd Glenn - Little Eva
TTITLE8=Gene the Hat - RamBunkShush (Ain't Got No Money)
TTITLE9=The Megatons - Shimmy Shimmy Walk, Part 1
TTITLE10=J.C. Davis - Coolin' Out
TTITLE11=Bo Diddley - Mess Around
EXTD=more info - MillenniumMusicProjectFormat - SYNTAX=SongTitle{Subtitle}[miscInfo](Lyricist;Composer;Date,Artist,Location,State,Country)
EXTT0=
EXTT1=
EXTT2=
EXTT3=
EXTT4=
EXTT5=
EXTT6=
EXTT7=
EXTT8=
EXTT9=
EXTT10=
EXTT11=
PLAYORDER=
